Coordinates
version=1
nRows=24
nColumns=24
inDegrees=yes

Units are S.I. units (second, meters, Newtons, ...)
Angles are in degrees.

endheader
time	pelvis_tilt	pelvis_list	pelvis_rotation	pelvis_tx	pelvis_ty	pelvis_tz	hip_flexion_r	hip_adduction_r	hip_rotation_r	knee_angle_r	ankle_angle_r	subtalar_angle_r	mtp_angle_r	hip_flexion_l	hip_adduction_l	hip_rotation_l	knee_angle_l	ankle_angle_l	subtalar_angle_l	mtp_angle_l	lumbar_extension	lumbar_bending	lumbar_rotation
      5.29000000	      5.01639419	     -3.87208870	     -4.53353237	     -1.85375450	      0.94463694	      0.19871100	     11.16188443	      0.37341210	     -8.98850269	    -57.69925533	     -5.64919056	    -22.38329852	      0.00000000	     -0.20912167	      0.07307897	     -8.32292024	     -7.44127179	      7.67427924	     -4.47408500	      0.00000000	    -22.82981458	      2.83727079	      5.36281451
      5.30000000	      4.86760671	     -4.05075152	     -4.53934607	     -1.84576964	      0.94497143	      0.19812983	     12.10364521	      0.59917638	     -9.25881377	    -56.92533544	     -3.70141583	    -21.62376227	      0.00000000	     -0.63006313	     -0.04289307	     -8.50746577	     -7.39085532	      8.11542874	     -4.30616745	      0.00000000	    -22.81421012	      3.09718413	      5.10577735
      5.31000000	      4.72243100	     -4.20670491	     -4.51272335	     -1.83775379	      0.94520439	      0.19760521	     12.98326624	      0.81468718	     -9.55116987	    -55.94419227	     -1.89647499	    -20.45870560	      0.00000000	     -1.04975774	     -0.13753546	     -8.64917624	     -7.34233254	      8.54605028	     -4.18392798	      0.00000000	    -22.78767573	      3.32721310	      4.81398908
      5.32000000	      4.57459530	     -4.36331817	     -4.47404039	     -1.82971330	      0.94534697	      0.19715620	     13.80130466	      1.05972502	     -9.82896202	    -54.74523507	     -0.26328429	    -18.95180625	      0.00000000	     -1.46796862	     -0.23372284	     -8.71190062	     -7.29483142	      8.97122231	     -4.12150931	      0.00000000	    -22.75320907	      3.56027856	      4.48755422
      5.33000000	      4.43180884	     -4.50748737	     -4.43985648	     -1.82163843	      0.94540255	      0.19678810	     14.54869389	      1.30271270	    -10.11796440	    -53.33469451	      1.26271984	    -17.23040497	      0.00000000	     -1.89675580	     -0.31637129	     -8.75661304	     -7.23898309	      9.36711967	     -4.13325062	      0.00000000	    -22.71755433	      3.76796429	      4.17938849
      5.34000000	      4.29019512	     -4.64761678	     -4.42080230	     -1.81353219	      0.94537488	      0.19651050	     15.22055010	      1.56442094	    -10.39937324	    -51.70048608	      2.65776352	    -15.39750798	      0.00000000	     -2.33230134	     -0.39317646	     -8.78399627	     -7.17929624	      9.74278759	     -4.21521914	      0.00000000	    -22.67546281	      3.96755332	      3.89261556
      5.35000000	      4.14464281	     -4.79446176	     -4.43067789	     -1.80540111	      0.94525949	      0.19636519	     15.81687311	      1.86257800	    -10.66672238	    -49.84090129	      3.87096450	    -13.58806218	      0.00000000	     -2.77222937	     -0.47894537	     -8.79868432	     -7.11418981	     10.10415769	     -4.35717476	      0.00000000	    -22.62930247	      4.15375048	      3.63518738
      5.36000000	      4.00048062	     -4.94389039	     -4.46284410	     -1.79724177	      0.94505536	      0.19632971	     16.32727996	      2.19099936	    -10.92711386	    -47.76072101	      4.87247335	    -11.88869829	      0.00000000	     -3.22182545	     -0.56631263	     -8.78307220	     -7.04578577	     10.47289135	     -4.51918364	      0.00000000	    -22.58291833	      4.32999137	      3.41392649
      5.37000000	      3.85492942	     -5.06873212	     -4.52425444	     -1.78904797	      0.94472894	      0.19641221	     16.76056367	      2.52169918	    -11.17178421	    -45.48274899	      5.71849493	    -10.37257382	      0.00000000	     -3.67036564	     -0.62765807	     -8.79062859	     -6.98141389	     10.82809866	     -4.72166091	      0.00000000	    -22.52645269	      4.46317293	      3.22438980
      5.38000000	      3.71116243	     -5.16503225	     -4.60185705	     -1.78080499	      0.94427034	      0.19660870	     17.11202166	      2.84453165	    -11.42456428	    -43.02236593	      6.40169182	     -9.07467287	      0.00000000	     -4.12440914	     -0.65887757	     -8.78976148	     -6.91450321	     11.18727811	     -4.94391379	      0.00000000	    -22.46214432	      4.54464682	      3.05777440
      5.39000000	      3.57674490	     -5.21579250	     -4.68743804	     -1.77250745	      0.94367762	      0.19687973	     17.37653947	      3.13907323	    -11.67922087	    -40.39584251	      6.94890897	     -7.97555521	      0.00000000	     -4.58367516	     -0.63961868	     -8.76843148	     -6.85906216	     11.54713380	     -5.18376102	      0.00000000	    -22.39211988	      4.57378732	      2.89733650
      5.40000000	      3.43822780	     -5.23316102	     -4.78041168	     -1.76412622	      0.94292652	      0.19724705	     17.56951244	      3.41470318	    -11.96935292	    -37.61740054	      7.33973118	     -7.11404473	      0.00000000	     -5.04903437	     -0.58547355	     -8.73809608	     -6.78976699	     11.92395764	     -5.43600258	      0.00000000	    -22.29255599	      4.55064977	      2.76354578
      5.41000000	      3.32658532	     -5.18595513	     -4.86397402	     -1.75568639	      0.94205721	      0.19766645	     17.66612231	      3.64079268	    -12.25989901	    -34.71233947	      7.67737123	     -6.30775529	      0.00000000	     -5.53378412	     -0.46057364	     -8.66228931	     -6.73810722	     12.27107237	     -5.71884211	      0.00000000	    -22.21662960	      4.45280486	      2.57671472
      5.42000000	      3.21923961	     -5.10978599	     -4.94018669	     -1.74714448	      0.94104820	      0.19814462	     17.68644944	      3.84438565	    -12.61545492	    -31.68304472	      7.86183824	     -5.64286156	      0.00000000	     -6.04150827	     -0.30565759	     -8.56051500	     -6.65978290	     12.63899772	     -5.99749833	      0.00000000	    -22.11349415	      4.31775444	      2.39920209
      5.43000000	      3.11178757	     -5.00504444	     -5.01058421	     -1.73849037	      0.93989858	      0.19866693	     17.64071864	      4.02415158	    -13.05481901	    -28.55134639	      7.91259102	     -5.07937769	      0.00000000	     -6.56756821	     -0.12249697	     -8.46046393	     -6.55748973	     13.03685148	     -6.23925935	      0.00000000	    -21.98585664	      4.15431022	      2.22983704
      5.44000000	      3.05671898	     -4.85858518	     -5.06108822	     -1.72974252	      0.93869225	      0.19921645	     17.47683721	      4.16476685	    -13.57084584	    -25.33738907	      7.93289462	     -4.41236763	      0.00000000	     -7.15889785	      0.10748460	     -8.31218733	     -6.44531139	     13.38854139	     -6.50441093	      0.00000000	    -21.91102018	      3.94090121	      2.00691313
      5.45000000	      2.99041540	     -4.70260044	     -5.09841031	     -1.72085062	      0.93734288	      0.19980521	     17.27230293	      4.29622923	    -14.25806833	    -22.07035502	      7.82533396	     -3.81938790	      0.00000000	     -7.76501128	      0.34067012	     -8.17913185	     -6.29782412	     13.79561474	     -6.70535263	      0.00000000	    -21.78614569	      3.72259150	      1.79438828
      5.46000000	      2.98440545	     -4.52871695	     -5.11662720	     -1.71187309	      0.93596825	      0.20044712	     16.96340773	      4.41078374	    -15.12846823	    -18.78550451	      7.75386546	     -3.01345804	      0.00000000	     -8.43234108	      0.58848179	     -8.01097358	     -6.17265596	     14.16212697	     -6.90158942	      0.00000000	    -21.73120601	      3.47028707	      1.55082249
      5.47000000	      2.97982711	     -4.34050099	     -5.11128870	     -1.70276936	      0.93449338	      0.20109914	     16.63406205	      4.50862124	    -16.27910890	    -15.53979357	      7.72192615	     -1.98759736	      0.00000000	     -9.10879786	      0.84323740	     -7.84968920	     -6.04270597	     14.52984110	     -7.08076070	      0.00000000	    -21.65945604	      3.22318603	      1.31728426
      5.48000000	      2.96750876	     -4.15518090	     -5.10280492	     -1.69354493	      0.93292074	      0.20183990	     16.32029788	      4.61851770	    -17.81155300	    -12.39905020	      7.74927301	     -0.66622245	      0.00000000	     -9.78794221	      1.08301094	     -7.71429337	     -5.91003852	     14.90502313	     -7.22865688	      0.00000000	    -21.55305898	      2.96765461	      1.10522404
      5.49000000	      2.97512487	     -3.96953355	     -5.05028283	     -1.68424518	      0.93131462	      0.20264444	     15.99421790	      4.76048828	    -19.58268089	     -9.37579275	      7.84677972	      0.85046994	      0.00000000	    -10.46832013	      1.30043262	     -7.56018214	     -5.82737636	     15.28446498	     -7.29761076	      0.00000000	    -21.46757952	      2.70716478	      0.85121000
      5.50000000	      2.98248779	     -3.79464462	     -4.97536453	     -1.67488657	      0.92966512	      0.20355075	     15.70130254	      4.95685763	    -21.50654827	     -6.53330469	      8.01320578	      2.55965874	      0.00000000	    -11.12848997	      1.48361502	     -7.41094524	     -5.79469959	     15.66262182	     -7.32629763	      0.00000000	    -21.38110225	      2.45058909	      0.60730294
      5.51000000	      2.98414879	     -3.63139887	     -4.87806757	     -1.66548801	      0.92797824	      0.20456972	     15.45371329	      5.21398356	    -23.30331030	     -3.90581224	      8.20787061	      4.24334756	      0.00000000	    -11.75942671	      1.62957961	     -7.25946008	     -5.81509110	     16.03424424	     -7.32511687	      0.00000000	    -21.29288095	      2.19714753	      0.36894313
      5.52000000	      2.96603412	     -3.47493327	     -4.77045217	     -1.65604719	      0.92623958	      0.20569436	     15.26564757	      5.51064151	    -24.66180479	     -1.53343349	      8.36590139	      5.59245213	      0.00000000	    -12.33918514	      1.74603100	     -7.10015670	     -5.90182002	     16.39467521	     -7.31041575	      0.00000000	    -21.17892251	      1.94216756	      0.14498501
